<svg width="100" height="100" fill="none" xmlns="http://www.w3.org/2000/svg"><path d="M22.868 27.904a1.5 1.5 0 012.035-1.4L55.801 38.3a3.5 3.5 0 012.251 3.27v36.776a1.5 1.5 0 01-2.035 1.4L25.12 67.95a3.5 3.5 0 01-2.252-3.27V27.904z" stroke="url(#paint0_linear_5453_25691)"/><path d="M19.25 51.691a1.5 1.5 0 012.052-1.394l10.985 4.343a3.5 3.5 0 012.213 3.255v17.913a1.5 1.5 0 01-2.052 1.395L21.463 72.86a3.5 3.5 0 01-2.213-3.255V51.69zM38 59.14a1.5 1.5 0 012.028-1.404l8.455 3.182a3.5 3.5 0 012.267 3.276V82.11a1.5 1.5 0 01-2.028 1.404l-8.455-3.182A3.5 3.5 0 0138 77.056V59.14z" stroke="#F8B000"/><path d="M20 45l5.625-2.5 3.125-3.75 3.75 5.625L35 41.25l6.25 10 7.5-6.875L60.625 42.5" stroke="#F8B000" stroke-linecap="round" stroke-linejoin="round"/><path d="M36.026 20.01a1.5 1.5 0 012.035-1.402L68.96 30.405a3.5 3.5 0 012.252 3.27v37.236a1.5 1.5 0 01-2.035 1.401L38.278 60.515a3.5 3.5 0 01-2.252-3.27V20.01z" stroke="url(#paint1_linear_5453_25691)"/><path d="M29.776 23.76a1.5 1.5 0 012.035-1.402L62.71 34.155a3.5 3.5 0 012.252 3.27v37.236a1.5 1.5 0 01-2.035 1.401L32.028 64.265a3.5 3.5 0 01-2.252-3.27V23.76z" stroke="url(#paint2_linear_5453_25691)"/><path d="M42.276 16.26a1.5 1.5 0 012.035-1.402L75.21 26.655a3.5 3.5 0 012.252 3.27v35.986a1.5 1.5 0 01-2.035 1.401L44.528 55.515a3.5 3.5 0 01-2.252-3.27V16.26z" stroke="url(#paint3_linear_5453_25691)"/><defs><linearGradient id="paint0_linear_5453_25691" x1="54.441" y1="30.777" x2="30.582" y2="46.783" gradientUnits="userSpaceOnUse"><stop stop-color="#F8B000"/><stop offset="1" stop-color="#F8B000" stop-opacity="0"/></linearGradient><linearGradient id="paint1_linear_5453_25691" x1="67.599" y1="22.929" x2="43.62" y2="38.886" gradientUnits="userSpaceOnUse"><stop stop-color="#F8B000"/><stop offset="1" stop-color="#F8B000" stop-opacity="0"/></linearGradient><linearGradient id="paint2_linear_5453_25691" x1="61.349" y1="26.679" x2="37.37" y2="42.636" gradientUnits="userSpaceOnUse"><stop stop-color="#F8B000"/><stop offset="1" stop-color="#F8B000" stop-opacity="0"/></linearGradient><linearGradient id="paint3_linear_5453_25691" x1="73.849" y1="19.179" x2="49.87" y2="35.136" gradientUnits="userSpaceOnUse"><stop stop-color="#F8B000"/><stop offset="1" stop-color="#F8B000" stop-opacity="0"/></linearGradient></defs></svg>