<svg xmlns="http://www.w3.org/2000/svg" height="800" width="1200" version="1.0" viewBox="-230.385 -300.263 1996.67 1801.578"><path d="M729.4.952c-125.7 10.8-241.6 72.7-321 171.4-90.6 112.7-124.5 260.1-92.4 402 16.2 71.5 50.1 139.9 97.9 197.4 13 15.7 41.8 44.6 57 57.2 53.7 44.7 112 75.3 176.9 92.9 118.8 32.2 247.5 14.9 353.2-47.6 128.7-76 213.9-209.9 228.3-358.9 8.6-88.9-7.3-176.7-46.4-256-58-117.7-162.6-205.8-287.5-241.9-28-8.1-60.6-14-91-16.6-14.1-1.2-60.7-1.1-75 .1zm63.5 19.9c107.4 6.6 204.9 49.7 281.9 124.5 68.6 66.7 114.2 153.4 130 247.3 5.5 32.2 7.6 77.4 5.2 109.2-8.3 108.9-54 208.9-130.6 285.5-35.7 35.7-73.4 62.6-119 85-45.9 22.5-90.2 35.5-144 42.2-20.2 2.5-77 2.5-97.5 0-52.8-6.6-97.6-19.7-143.5-42.2-45.6-22.3-83.1-49.1-119-85-69.2-69.2-113.9-158.9-127.4-255.6-6.1-43.8-5.4-95.6 2-139.1 27.3-162.5 142.9-298.2 297.9-349.8 53.7-17.9 109.2-25.3 164-22z" fill="navy"/><path d="M739.9 41.452c-15.7 1.4-35.4 3.9-47 6-68.7 12.6-132.6 41.8-188 86-17.4 13.9-51.5 48-65.4 65.4-11.1 14-29.9 41.5-37.8 55.5-4.9 8.6-10.8 20.1-10.8 21 0 .3 169.7.5 377 .5 207.4 0 377-.2 377-.5 0-.9-5.9-12.4-10.8-21-7.9-14-26.7-41.5-37.8-55.5-13.9-17.4-48-51.5-65.4-65.4-62.8-50.1-135.2-80.4-215.5-90.2-12.3-1.5-64.6-2.7-75.5-1.8zm-363 263.6c-21.9 52.8-33.3 115-31.7 173.8 1.5 56.4 12.5 107.3 34.2 159.5l1.5 3.5 387.1-.2 387.1-.3 4.5-11c34.1-84.1 40.5-180.5 17.8-269.2-4.3-16.5-12.6-41.9-18.5-56.1l-4.3-10.3-12.6.8c-16.5 1-520.4 1-655.7 0l-105.1-.8zm767.8 20c15.4 42.8 23.1 80.7 25.1 124.4 2.6 54.2-5.4 107.9-23.7 158.6l-4.6 12.8H395l-1.5-2.8c-2.5-4.9-11.6-32.9-15.1-46.8-20.9-81.3-16.6-165 12.7-246.2l3-8.2h747.6z" fill="navy"/><path d="M503.7 335.552l-73.8.3v13.8c.1 7.5.6 16.6 1.3 20.2l1.2 6.5 6.4.7c13.8 1.5 23.5 6.5 27.5 14.3 2 3.8 2.1 6.3 2.9 40.5 1 49.7.4 109.3-1.2 114.4-.7 2.1-3.4 6-6 8.6-5.5 5.5-10.9 7.6-22.4 8.6l-7.7.6.2 19 .3 19 103-.1c56.7-.1 104-.4 105.3-.8l2.2-.5v-83l-18.9.4c-10.4.2-19.3.6-19.7 1.1-.4.4-1.1 6.3-1.5 13.2-1.1 17.4-4.1 23.3-13.9 27.9-4.2 1.9-5.9 2-26 1.7-11.8-.1-21.8-.5-22.2-.7-.5-.3-.8-17.5-.8-38.4 0-33.5.2-37.9 1.6-38.4.9-.3 14.8-.6 31-.6h29.4v-32.7l-5.2-.7c-2.9-.3-16.8-.6-30.9-.6h-25.7l-.7-28.5c-.4-15.6-.4-31.8 0-35.9.6-6.5.9-7.5 2.8-8 3.7-1 34.1-.7 39.8.4 8.6 1.7 14 4.8 16.9 10 2.2 4 2.5 6 3 18l.5 13.5 9.5.8c9.6.8 25.3.3 28.5-.9 1.6-.7 1.7-3 1.1-37.8-.4-20.4-.9-39.2-1.2-41.9l-.6-4.7-31.1.2c-17.2.2-64.4.4-104.9.5zm183.8 1.5c-.8 3-.8 21.6 0 31.1l.7 7.7h4.3c6.6 0 19.5 2 23.4 3.6 6.9 2.9 11.6 9.2 13.8 18.4 1.5 6.4 2.5 82.5 1.4 119-.9 33.4-.9 33.6-7.4 39.6-4.2 3.9-10.8 5.4-24.2 5.4h-10.3l-.7 16.9c-.4 9.2-.4 18 0 19.5l.6 2.6h76.8c42.3 0 77-.3 77.2-.8.2-.4.1-9-.2-19.2l-.5-18.5-8.7-.7c-14-1-23.2-6.7-27.9-17.1l-2.4-5.2-.3-65c-.1-35.7.1-69.4.6-74.8.8-8.6 1.3-10.3 4-14 4.3-6 9.9-8.7 18.1-8.7 3.6 0 9-.3 11.9-.6l5.2-.7v-39.4l-45.7-.6c-25.2-.4-60-.7-77.4-.7h-31.7zm222.8-1.5c-19.2.3-23.3.6-23.8 1.8-.3.8-.2 9.8.1 20l.6 18.5h9.1c13.6.1 20.5 3.3 26.6 12.2 3.1 4.5 3.3 5.3 4.1 17.5.4 7.1.8 39.8 1 72.8.3 66.8 0 71.1-5.3 77.1-3.9 4.4-7.9 5.4-21.9 5.4h-11.6l-.7 3.1c-.8 4.1-.8 18.1.1 28.6l.6 8.3h85.7c47.1 0 95.9-.3 108.4-.7l22.8-.6-.4-39.9c-.3-34.1-.5-40-1.8-40.8-.8-.5-9.4-1-19.1-1h-17.6l-.7 15.2c-.8 16.5-2 20.6-7.2 24.7-2.6 2-3.7 2.1-31.9 2.1h-29.3l-.7-9.3c-.3-5-.5-42.3-.3-82.7.4-80.8.4-80.4 6.5-86.2 4.9-4.6 7.2-5.2 20.6-5.6l12.7-.4v-40.8l-51.7.2c-28.5.2-62.2.4-74.9.5zm-519.4 327.1c0 .4 3.6 7.2 8.1 15.2 88.9 159.5 265.3 243.7 443.9 211.9 112-19.9 213.5-87.4 277.3-184.4 8-12.2 24.7-41.1 24.7-42.7 0-.5-169.6-.8-377-.8-207.3 0-377 .3-377 .8z" fill="navy"/><path d="M884.9 1053.852c-17.4 4.7-28.4 16.1-33.6 35.1-1.4 4.9-1.8 10.1-1.8 21.9 0 11.8.4 17 1.8 21.9 5.2 18.8 16.9 31.2 33.9 35.7 6.8 1.8 24.7 1.8 31.6-.1 16.4-4.3 27.7-15 31.5-30 2.9-11 3.3-10.5-9.8-10.5h-11.4l-1.6 4.6c-3.6 10.8-11 15.7-23.2 15.7-13.4 0-22.7-6.8-27-19.9-2.9-9-2.6-28.7.5-36.8 5.8-14.7 20.1-21.6 35.4-17.2 7.5 2.2 11.4 5.8 13.7 12.6l1.9 5.5 11.7.3 11.7.3-.7-5.2c-2.1-16-11-27.1-26.4-33-8.5-3.2-27.8-3.7-38.2-.9zm-846 1.4c0 .2-5.9 17.1-13.1 37.7-7.2 20.6-16 45.6-19.5 55.7l-6.3 18.3 12.6-.3 12.6-.3 3.5-11.3 3.5-11.2h41.6l3.8 11.5 3.7 11.5h12.4c9.5 0 12.3-.3 12-1.2-.3-.7-9.2-25.9-19.9-56l-19.4-54.8H52.7c-7.6 0-13.8.2-13.8.4zm21.3 46.8c3.7 11.7 6.7 21.6 6.7 22 0 .5-6.5.8-14.4.8H38.2l7.1-22c3.9-12.1 7.3-22 7.6-22 .3 0 3.6 9.6 7.3 21.2zm99.7 8.8v56h23l.2-37.1.3-37.2 21.6 36.9 21.5 36.9 12.2.3 12.2.3v-112.1h-23l-.2 36.9-.3 36.8-21.4-36.8-21.4-36.9h-24.7zm425-38.5v11.5h-11v16h10.9l.3 28.2c.3 25.5.5 28.7 2.2 32.2 3 5.9 7.5 7.6 21.4 7.6h11.2v-18H615c-8 0-8.1-.4-8.1-27.2v-22.8h13v-16h-13v-23h-22zm-293.6 9.6c-11.8 2.8-20.1 11.8-21.1 22.8l-.6 6.1h10.7c9.4 0 10.6-.2 10.6-1.8 0-3.7 3.8-8.1 8.1-9.2 11.8-3.2 22.9 5.1 15.7 11.7-3 2.6-4.1 3-15.6 4.8-19.1 3-25.2 5.9-29.5 13.8-1.8 3.5-2.2 5.8-2.2 13.7 0 8.8.2 9.9 3.1 15 4.4 7.8 10.6 11 21.3 11 9.6 0 15.7-2 21.3-7l4.3-3.8 1 3.7 1.1 3.6 12.2.3c13.6.3 14.3-.1 10-5.9-2.2-3-2.3-3.9-2.8-33.2-.4-26-.7-30.6-2.2-33.3-4.5-8.3-14.3-12.5-30.3-13-6-.2-12.8.1-15.1.7zm25.1 57.6c-.8 4.2-5 9.2-9.2 10.9-5.4 2.3-12.6 1.8-15.7-1.1-3.6-3.3-3.6-8.4.2-12.6 2.1-2.4 5-3.8 13.7-6.4l11-3.3.3 4.6c.2 2.6.1 6.1-.3 7.9zm199.6-57.1c-12.6 3.4-19.4 11.1-20.2 22.9l-.4 5 10.8.3 10.7.3v-2.4c0-6.1 7.9-10.5 16.3-9.3 9.6 1.5 12.7 10 4.9 14-1.5.7-8.5 2.3-15.7 3.6-14.6 2.5-18.7 3.9-22.9 7.8-4.8 4.5-6.6 9.6-6.6 19.2 0 18.4 8.9 26.8 27.4 25.8 8.9-.5 14.8-2.8 20.2-8l3.1-2.9.7 4 .6 4.1h12c11.6 0 12-.1 12-2.2 0-1.2-.8-3-1.7-4.1-1.6-1.7-1.9-5.2-2.3-32.1-.6-34.5-.8-35.5-9.3-41.3-8.6-5.8-27.3-8-39.6-4.7zm24.7 60.3c-3 5.9-8.3 9.1-15.4 9.1-8.4 0-13.1-5.5-10.3-12.1 1.6-4 6.3-6.6 17.6-9.8l9.8-2.8.3 5.5c.2 4.1-.3 6.5-2 10.1zm201.9-60.8c-12.4 2.9-20.2 11.4-21.4 23.5l-.6 5.4h21.2l1.1-4c1.5-5.5 4.8-7.5 12.6-7.5 8.3 0 11.9 2.4 11.9 8.1 0 3.5-.4 4.1-3.5 5.6-1.9.9-9.1 2.6-16 3.8-20.2 3.4-26.5 7.6-29.1 19.9-2.2 10.6.8 22 7.4 27.8 4.8 4.2 10.4 5.6 20.2 5.1 8.8-.5 14.2-2.6 19.2-7.7l3-3 1.2 4 1.2 3.9h23.9v-2.4c0-1.3-.5-2.6-1-2.8-.6-.2-1.7-2.1-2.5-4.3-1.1-3.1-1.4-10.3-1.5-31.2 0-16.6-.4-28.3-1.1-30-2.4-6.4-10.7-12-20.7-14.2-6.1-1.3-20-1.3-25.5 0zm26 51.4c-1.2 12.4-7.2 18.5-18.3 18.5-3.7 0-5.1-.6-7.5-2.9-4.9-4.9-3.4-11.2 3.4-14.8 2.8-1.4 19.6-6.9 22.1-7.2.5-.1.6 2.8.3 6.4zm222-51.5c-20.5 5.2-32.3 26.3-28.9 51.7 2.1 15.8 9.5 26.6 22.2 32.7 6.2 2.9 7.1 3.1 18.5 3.1 14.3 0 20.5-2 28.2-9 9.1-8.1 13.3-18.9 13.3-34.5 0-21.2-8.5-36.2-23.8-42.1-6.4-2.4-23-3.5-29.5-1.9zm21.4 21.3c5.1 3.4 8.2 10.4 8.7 20.1.9 17.2-5.9 27.1-18.4 27-10.2-.2-16.6-7.6-18-21-1.2-11.4 2.4-21.3 9.5-26.1 4.7-3.2 13.4-3.2 18.2 0zm218.4-21.4c-4.6 1.1-7.6 3-12.2 7.4l-4.3 4.1v-9.4h-21v116h22v-40.7l3.9 3.8c5.4 5.1 12.4 7.3 21.5 6.7 4.5-.3 8.6-1.3 11.3-2.6 23.7-12.2 27.6-58.7 6.5-78.4-7.2-6.7-17.6-9.3-27.7-6.9zm7.8 20.5c7.3 3.1 10.7 10.4 10.7 22.9 0 4.4-.5 9.8-1.2 12-1.7 5.6-7.4 11.3-12.1 12.2-12.1 2.3-19.6-5.4-20.5-21.2-.5-9.7.9-16.4 4.5-21.2 4.4-5.7 11.9-7.6 18.6-4.7zm66.7-19.8c-6.9 1.8-12.6 5.7-16.4 11.2-2.4 3.4-3.1 5.6-3.4 10.7l-.4 6.5h10.6c10.5 0 10.6 0 10.6-2.4 0-6 7.9-10.4 16.3-9.2 9.6 1.5 12.7 10 4.9 14-1.5.7-8.5 2.3-15.7 3.6-15.2 2.6-19.8 4.4-24.1 9.2-4.5 5.2-5.7 9.6-5.2 19.7.3 7.2.9 9.5 3.1 13.4 4.9 8.3 11.5 11.2 24.1 10.5 8.9-.5 14.8-2.8 20.2-8l3.1-2.9.7 4 .6 4.1h12c11.6 0 12-.1 12-2.2 0-1.2-.8-3-1.7-4.1-1.6-1.7-1.9-5.2-2.3-32.1-.6-34.5-.8-35.5-9.3-41.3-8.6-5.8-27.2-8-39.7-4.7zm24.8 60.3c-3 5.9-8.3 9.1-15.4 9.1-8.3 0-12.7-5.1-10.2-12.1 1.4-3.9 6.1-6.6 17.5-9.8l9.8-2.8.3 5.5c.2 4.1-.3 6.5-2 10.1zm-856.7-59.8c-4 1.6-8.2 5-11.2 9.2l-2.9 4v-12.3h-21v83h23v-24.8c0-21.9.3-25.2 1.9-28.8 2.3-5.1 6.4-7.1 16-8l7.1-.7v-22.7l-5.2.1c-2.9 0-6.4.5-7.7 1zm193.5.4c-2.1.7-5.8 2.8-8.2 4.5l-4.4 3.1v-7.1h-23v83h22.9l.3-27.9c.3-26.4.4-28.1 2.4-30.7 3.3-4.5 7-6.7 12.1-7.1 6.4-.5 10.8 2.1 12.2 7.4.7 2.2 1.1 15 1.1 31v27.3H705l-.3-33.3-.3-33.2-3-6c-3.2-6.4-7.1-9.7-13.4-11.5-5.1-1.4-16.9-1.2-21.5.5zm423.9.4c-2.2 1-5.5 3-7.2 4.5l-3.3 2.8v-7.2h-22v83h23v-27.5c0-29.9.2-31.2 5.6-35.4 2.9-2.3 10.1-2.9 13.5-1.1 4.5 2.5 4.9 5.1 4.9 35.5v28.5h21.9l.3-27.8c.3-26.6.4-27.8 2.5-31.3 2.7-4.3 5.9-5.9 11.8-5.9 3.2 0 5.1.7 7.2 2.4l2.8 2.4.3 30.1.3 30.1h23l-.3-32.8c-.3-31.9-.4-32.8-2.7-38-4.7-10.3-12.9-14.7-26.3-14-9.2.5-12.5 1.8-17.9 7.2l-3.5 3.6-2.2-2.9c-1.1-1.6-4.4-4-7.3-5.5-6.7-3.3-18-3.6-24.4-.7zm315.9-.3c-2.3.8-6 3.1-8.3 5l-4.1 3.6v-8.2h-22v83h21.9l.3-27.3c.3-25.1.5-27.5 2.3-30.7 4.5-7.8 16.7-10.3 22.4-4.6l2.6 2.6.3 30 .3 30h23l-.3-34.3c-.3-33.1-.4-34.3-2.5-38.4-2.7-5.1-8.2-9.6-13.2-11.2-5.2-1.5-17.7-1.3-22.7.5zm-1058.4 1.1c0 .5 6.5 19 14.4 41.3l14.4 40.5h23.7l14.2-40c7.8-22 14.2-40.6 14.2-41.3.1-.9-2.9-1.2-11.8-1.2h-11.8l-7.8 27.2c-4.2 15-8 27.6-8.4 28-.5.6-4-11.3-15.3-52l-.9-3.2h-12.4c-6.9 0-12.5.3-12.5.7zm1112.1 16.5c19.3 54.8 24.1 69.8 23.5 72.3-1.2 4.8-4.8 7.3-11.5 8.1l-6.1.7v18.9l10.3-.4c12.1-.5 17.2-2.6 21.4-8.9 1.5-2.3 10.3-26.4 20.4-55.7 9.8-28.4 17.9-51.8 17.9-52 0-.1-5.4-.2-11.9-.2h-11.9l-1.1 3.2c-.5 1.8-3.5 12.3-6.6 23.3-3.1 11-6.3 22.5-7.2 25.5l-1.6 5.5-8.2-28.5-8.2-28.5-12.6-.3-12.6-.3z"/></svg>