<svg xmlns="http://www.w3.org/2000/svg" height="800" width="1200" viewBox="-33.21075 -70.32475 287.8265 421.9485"><path d="M9.904 248.916c4.2-5.906 8.675-8.904 13.335-8.904 6.432 0 9.666 5.46 9.666 16.413 0 5.805-.98 10.389-2.973 13.68-2.026 3.218-4.897 4.885-8.572 4.885-3.772 0-7.486-2.115-11.456-6.304zm-2.052 31.828l2.052-5.755c3.464 4.24 7.684 6.31 12.606 6.31 5.747 0 10.395-2.386 13.91-7.166 3.606-4.714 5.39-10.912 5.39-18.611 0-6.98-1.516-12.438-4.513-16.555-2.961-4.054-7.13-6.07-12.34-6.07-6.015 0-10.962 3.255-15.054 9.729v-29.654H1.605v67.773h6.247zm66.255-6.534c-2.411 0-4.4-.682-5.85-2.022-1.445-1.327-2.206-3.155-2.206-5.4 0-6.252 5.747-9.324 17.17-9.324h2.5v11.655c-4.096 3.448-7.963 5.09-11.614 5.09m21.3 6.797c1.394 0 3.504-.451 6.258-1.324l-.71-5.041c-1.244.243-2.134.42-2.664.42-1.625 0-2.737-.496-3.352-1.532-.516-.962-.874-2.9-.874-5.66v-19.405c0-5.716-1.17-9.714-3.644-12.076-2.36-2.323-6.527-3.49-12.352-3.49-5.18 0-10.753 1.055-16.68 3.202v7.22c5.192-2.75 10.204-4.083 15.069-4.083 3.26 0 5.65.68 7.115 2.035 1.425 1.477 2.147 3.743 2.147 7.023v3.922h-5.211c-6.858 0-12.453 1.46-16.748 4.417-4.162 2.94-6.297 6.789-6.297 11.593 0 3.722 1.342 6.764 4.065 9.127 2.729 2.447 6.169 3.653 10.362 3.653 5.043 0 10.12-2.13 15.113-6.365 1.442 4.234 4.228 6.364 8.404 6.364m21.012-61.746v-6.283h26.114v67.236h-8.323V219.26zm57.484 0v-6.283h26.128v67.236H191.7V219.26z" fill="#231F20"/><path fill="#821F21" d="M200.262 200.302V1.88l-10.524 10.467v177.455z"/><path stroke-width="1.552" stroke="#821F21" fill="none" d="M200.262 200.302V1.88l-10.524 10.467v177.455z"/><path fill="#AF262B" d="M189.738 189.803H12.243L1.862 200.302h198.406z"/><path stroke-width="1.552" stroke="#AF262B" fill="none" d="M189.738 189.803H12.243L1.862 200.302h198.406z"/><path fill="#EC1C24" d="M12.237 12.352h177.5V189.81h-177.5z"/><path fill="#F48366" d="M12.243 189.806V12.352L1.862 1.884v198.422z"/><path stroke-width="1.552" stroke="#F48366" fill="none" d="M12.243 189.806V12.352L1.862 1.884v198.422z"/><path fill="#FABDA7" d="M12.243 12.352h177.495l10.524-10.468H1.862z"/><path stroke-width="1.552" stroke="#FABDA7" fill="none" d="M12.243 12.352h177.495l10.524-10.468H1.862z"/><path d="M100.994 53.653c2.775 0 5.339 1.067 7.415 3.11 2.086 1.99 3.19 4.433 3.19 7.22 0 2.513-1.03 4.623-3.118 6.339-2.123 1.727-4.482 2.6-7.313 2.6-2.852 0-5.25-.963-7.353-2.816-1.97-1.98-3.03-4.267-3.03-6.921 0-2.554 1.06-4.791 3.03-6.715 2.104-1.836 4.432-2.817 7.179-2.817m7.838 79.34c0 3.018.518 5.009 1.663 5.866 1.105.937 2.69 1.512 4.544 1.813 1.86.243 3.215.643 4.028 1.199.805.51 1.193 1.537 1.193 3.16 0 2.049-1.878 3.155-5.516 3.155-1.56 0-3.912-.162-7.146-.515-3.177-.38-5.474-.48-6.95-.48-1.552 0-3.751.19-6.687.662-2.89.43-5.095.654-6.545.654-1.438 0-2.687-.438-3.708-1.217-1.1-.793-1.554-1.886-1.554-3.222 0-.8.28-1.506.844-2.107.595-.597 2-1.061 4.38-1.416 2.326-.34 3.867-1.12 4.845-2.206.888-1.1 1.374-3.743 1.374-7.952V99.5c0-2.512-.631-4.286-1.752-5.105-1.1-.898-2.87-1.447-5.03-1.898-2.275-.457-3.593-1.048-4.206-1.694-.557-.7-.806-1.541-.806-2.598 0-1.074.44-2.01 1.419-2.737.914-.715 2-1.086 3.202-1.086 1.164 0 2.646.207 4.764.693 1.923.5 3.414.62 4.384.62 1.01 0 2.725-.064 4.949-.47 2.199-.335 3.9-.517 4.91-.517 2.37 0 3.56 1.886 3.56 5.682 0 .583 0 1.439-.083 2.42-.076 1.048-.076 1.716-.076 2.042z" fill="#FFF"/><path d="M100.994 53.653c2.775 0 5.339 1.067 7.415 3.11 2.086 1.99 3.19 4.433 3.19 7.22 0 2.513-1.03 4.623-3.118 6.339-2.123 1.727-4.482 2.6-7.313 2.6-2.852 0-5.25-.963-7.353-2.816-1.97-1.98-3.03-4.267-3.03-6.921 0-2.554 1.06-4.791 3.03-6.715 2.104-1.836 4.432-2.817 7.179-2.817zm7.838 79.34c0 3.018.518 5.009 1.663 5.866 1.105.937 2.69 1.512 4.544 1.813 1.86.243 3.215.643 4.028 1.199.805.51 1.193 1.537 1.193 3.16 0 2.049-1.878 3.155-5.516 3.155-1.56 0-3.912-.162-7.146-.515-3.177-.38-5.474-.48-6.95-.48-1.552 0-3.751.19-6.687.662-2.89.43-5.095.654-6.545.654-1.438 0-2.687-.438-3.708-1.217-1.1-.793-1.554-1.886-1.554-3.222 0-.8.28-1.506.844-2.107.595-.597 2-1.061 4.38-1.416 2.326-.34 3.867-1.12 4.845-2.206.888-1.1 1.374-3.743 1.374-7.952V99.5c0-2.512-.631-4.286-1.752-5.105-1.1-.898-2.87-1.447-5.03-1.898-2.275-.457-3.593-1.048-4.206-1.694-.557-.7-.806-1.541-.806-2.598 0-1.074.44-2.01 1.419-2.737.914-.715 2-1.086 3.202-1.086 1.164 0 2.646.207 4.764.693 1.923.5 3.414.62 4.384.62 1.01 0 2.725-.064 4.949-.47 2.199-.335 3.9-.517 4.91-.517 2.37 0 3.56 1.886 3.56 5.682 0 .583 0 1.439-.083 2.42-.076 1.048-.076 1.716-.076 2.042z" stroke-width="1.61" stroke="#FFF" fill="none"/><path d="M220.22 8.577c0 4.04-3.261 7.27-7.302 7.27a7.255 7.255 0 01-7.274-7.27 7.275 7.275 0 017.274-7.278c4.04 0 7.302 3.26 7.302 7.278z" stroke-width="2.37" stroke="#231F20" fill="none"/><path d="M209.9 4.764h3.357c.523 0 1.043 0 1.534.224.729.293 1.138 1.074 1.138 1.86 0 1.218-.786 1.886-2.077 2.043v.025c.34.163.825.438 1.412 1.36l1.305 2.056h-1.26l-.978-1.565c-1.074-1.688-1.425-1.752-2.237-1.752h-1.164v3.318h-1.03zm1.03 3.359h2.137c.466 0 .786 0 1.222-.194.39-.167.638-.642.638-1.081 0-.435-.248-.86-.588-1.03-.293-.136-.614-.181-1.041-.181h-2.366v2.486z" fill="#231F20"/></svg>