<svg xmlns="http://www.w3.org/2000/svg" height="800" width="1200" viewBox="-85.87155 -23.0325 744.2201 138.195"><path d="M0 56.756c0-4.66.499-8.742 1.496-12.238.997-3.497 2.319-6.523 3.967-9.079 1.645-2.556 3.54-4.685 5.686-6.388 2.144-1.702 4.314-3.094 6.509-4.169 5.185-2.511 11.122-3.855 17.807-4.035 6.585.179 12.469 1.524 17.658 4.035 2.193 1.075 4.363 2.467 6.509 4.169 2.144 1.704 4.041 3.833 5.686 6.388 1.647 2.556 2.994 5.582 4.041 9.079 1.048 3.496 1.572 7.578 1.572 12.238 0 4.664-.523 8.742-1.572 12.24-1.046 3.497-2.393 6.502-4.041 9.011-1.645 2.51-3.542 4.596-5.686 6.254-2.146 1.66-4.316 3.026-6.509 4.102-5.189 2.421-11.073 3.676-17.658 3.767-6.685-.091-12.622-1.346-17.807-3.767-2.195-1.075-4.365-2.441-6.509-4.102-2.146-1.658-4.041-3.744-5.686-6.254-1.647-2.509-2.97-5.514-3.967-9.011C.499 65.498 0 61.42 0 56.756zm35.465-20.04c-3.691 0-6.659.673-8.902 2.018-2.246 1.345-3.967 3.026-5.165 5.043-1.196 2.018-1.997 4.194-2.394 6.525-.4 2.332-.599 4.484-.599 6.454 0 1.974.198 4.126.599 6.456.397 2.333 1.198 4.506 2.394 6.523 1.198 2.017 2.918 3.698 5.165 5.043 2.244 1.345 5.211 2.018 8.902 2.018 3.689 0 6.659-.673 8.905-2.018 2.244-1.345 3.965-3.026 5.162-5.043 1.196-2.018 1.995-4.19 2.394-6.523.398-2.33.599-4.482.599-6.456 0-1.97-.2-4.122-.599-6.454-.398-2.331-1.198-4.507-2.394-6.525-1.197-2.017-2.918-3.699-5.162-5.043-2.246-1.345-5.215-2.018-8.905-2.018zm77.874-15.869c.298 0 1.37.045 3.217.134 1.846.091 4.014.47 6.509 1.143 2.494.672 5.138 1.728 7.932 3.16 2.792 1.436 5.387 3.498 7.78 6.188 2.396 2.69 4.364 6.075 5.911 10.153 1.545 4.082 2.32 9.125 2.32 15.13v34.027h-18.257V56.755c0-1.97-.2-3.987-.597-6.052-.4-2.062-1.148-3.944-2.246-5.648-1.098-1.702-2.645-3.115-4.639-4.237-1.997-1.12-4.638-1.681-7.93-1.681s-5.937.561-7.932 1.681c-1.997 1.122-3.542 2.535-4.639 4.237-1.098 1.704-1.846 3.587-2.244 5.648-.398 2.064-.599 4.082-.599 6.052v34.027H79.67V56.755c0-6.005.771-11.048 2.317-15.13 1.547-4.078 3.518-7.463 5.913-10.153 2.393-2.69 4.987-4.752 7.781-6.188 2.792-1.432 5.436-2.488 7.932-3.16 2.492-.673 4.637-1.052 6.434-1.143 1.796-.089 2.892-.134 3.292-.134z" fill="#EE255C"/><path d="M272.571 44.518c-1-3.497-2.271-6.523-3.816-9.079-1.549-2.556-3.343-4.685-5.387-6.388-2.046-1.702-4.116-3.094-6.211-4.169-4.889-2.511-10.474-3.855-16.759-4.035-6.386.179-12.023 1.524-16.91 4.035-2.095 1.075-4.141 2.467-6.136 4.169-.521.444-1.026.921-1.52 1.424-.5-.502-1.014-.979-1.547-1.424-2.046-1.702-4.116-3.094-6.211-4.169-4.889-2.511-10.474-3.855-16.759-4.035-6.387.179-12.023 1.524-16.91 4.035-2.095 1.075-4.14 2.467-6.135 4.169-1.997 1.704-3.792 3.833-5.387 6.388-1.596 2.556-2.869 5.582-3.815 9.079-.948 3.496-1.42 7.578-1.42 12.238v34.027h18.254V56.756c0-1.97.125-3.987.375-6.052.249-2.062.873-3.944 1.872-5.648.996-1.702 2.518-3.115 4.564-4.237 2.043-1.12 4.911-1.681 8.604-1.681 3.689 0 6.559.561 8.604 1.681 2.043 1.122 3.566 2.535 4.563 4.237.996 1.704 1.621 3.587 1.87 5.648.249 2.064.374 4.082.374 6.052v34.027h18.257V56.756c0-1.97.125-3.987.374-6.052.247-2.062.873-3.944 1.87-5.648.997-1.702 2.52-3.115 4.565-4.237 2.042-1.12 4.911-1.681 8.604-1.681 3.689 0 6.559.561 8.604 1.681 2.044 1.122 3.565 2.535 4.564 4.237.996 1.704 1.621 3.587 1.87 5.648.248 2.064.374 4.082.374 6.052v34.027h18.257V56.756c0-4.66-.501-8.742-1.496-12.238zm10.175 12.238c0-4.66.499-8.742 1.496-12.238.997-3.497 2.319-6.523 3.966-9.079 1.646-2.556 3.54-4.685 5.687-6.388 2.144-1.702 4.313-3.094 6.509-4.169 5.186-2.511 11.122-3.855 17.808-4.035 6.585.179 12.469 1.524 17.657 4.035 2.193 1.075 4.364 2.467 6.51 4.169 2.144 1.704 4.04 3.833 5.686 6.388 1.647 2.556 2.994 5.582 4.041 9.079 1.048 3.496 1.571 7.578 1.571 12.238 0 4.664-.523 8.742-1.571 12.24-1.047 3.497-2.394 6.502-4.041 9.011-1.646 2.51-3.542 4.596-5.686 6.254-2.146 1.66-4.316 3.026-6.51 4.102-5.188 2.421-11.072 3.676-17.657 3.767-6.686-.091-12.622-1.346-17.808-3.767-2.195-1.075-4.365-2.441-6.509-4.102-2.146-1.658-4.041-3.744-5.687-6.254-1.647-2.509-2.969-5.514-3.966-9.011-.997-3.498-1.496-7.576-1.496-12.24zm35.466-20.04c-3.691 0-6.659.673-8.903 2.018-2.245 1.345-3.967 3.026-5.164 5.043-1.195 2.018-1.996 4.194-2.394 6.525-.4 2.332-.599 4.484-.599 6.454 0 1.974.198 4.126.599 6.456.397 2.333 1.198 4.506 2.394 6.523 1.197 2.017 2.919 3.698 5.164 5.043 2.244 1.345 5.212 2.018 8.903 2.018 3.688 0 6.658-.673 8.904-2.018 2.244-1.345 3.965-3.026 5.162-5.043 1.196-2.018 1.995-4.19 2.394-6.523.398-2.33.599-4.482.599-6.456 0-1.97-.2-4.122-.599-6.454-.398-2.331-1.197-4.507-2.394-6.525-1.197-2.017-2.918-3.699-5.162-5.043-2.246-1.345-5.216-2.018-8.904-2.018zM442.89 7.398c0-1.972.024-3.451.075-4.439.049-.986.348-1.702.897-2.151.548-.448 1.444-.693 2.693-.741 1.247-.043 3.067-.066 5.463-.066 2.394 0 4.212.022 5.461.066 1.247.047 2.144.293 2.693.741.548.449.847 1.166.899 2.151.049.988.073 2.467.073 4.439s-.024 3.453-.073 4.438c-.053.988-.352 1.706-.899 2.151-.55.451-1.446.697-2.693.74-1.249.047-3.067.068-5.461.068-2.396 0-4.216-.021-5.463-.068-1.249-.043-2.146-.289-2.693-.74-.55-.446-.849-1.164-.897-2.151-.05-.985-.075-2.466-.075-4.438zm18.256 15.196v68.189H442.89V22.594zM491.327.001v90.783h-18.255V.001zM380.282 56.756c0 .229.029.482.035.715v-1.429c-.006.232-.035.486-.035.714zm.035 1.497h.038c-.013-.26-.032-.527-.038-.782z" fill="#070034"/><path d="M431.534 44.518c-.948-3.497-2.195-6.523-3.74-9.078-1.549-2.556-3.293-4.685-5.238-6.389-1.945-1.702-3.965-3.094-6.06-4.169-4.789-2.511-10.276-3.855-16.461-4.035-3.094.269-6.086.941-8.978 2.018-.787.312-1.581.704-2.379 1.136v14.688c2.235-1.312 5.166-1.973 8.813-1.973 3.688 0 6.658.672 8.902 2.018 2.246 1.345 3.967 3.026 5.164 5.043 1.196 2.018 1.993 4.194 2.394 6.524.396 2.333.599 4.485.599 6.455 0 1.974-.202 4.126-.599 6.456-.4 2.333-1.197 4.506-2.394 6.523-1.197 2.017-2.918 3.698-5.164 5.043-2.244 1.345-5.214 2.018-8.902 2.018-3.693 0-6.659-.673-8.904-2.018-2.244-1.345-3.992-3.026-5.236-5.043-1.249-2.018-2.072-4.19-2.469-6.523-.304-1.767-.454-3.397-.527-4.958h-.037L380.283 0h-17.807v56.622c0 4.663.497 8.742 1.496 12.238.995 3.498 2.319 6.524 3.965 9.078 1.647 2.556 3.518 4.664 5.612 6.322 2.095 1.661 4.238 3.026 6.434 4.102 5.089 2.421 10.924 3.676 17.509 3.767 6.585-.091 12.469-1.346 17.658-3.767 2.192-1.075 4.363-2.44 6.509-4.102 2.145-1.658 4.041-3.743 5.686-6.254 1.647-2.509 2.994-5.515 4.041-9.011 1.048-3.498 1.571-7.576 1.571-12.24-.001-4.659-.475-8.741-1.423-12.237zm88.528 13.068v-1.642c-.006.25-.05.492-.05.743 0 .301.027.6.05.899z" fill="#070034"/><path d="M520.062 57.586v-1.642c-.006.25-.05.492-.05.743 0 .301.027.6.05.899z" fill="#070034"/><path d="M520.508 61.683c-.08-.48-.164-.965-.233-1.441-.037-.354-.053-.708-.078-1.063-.039-.532-.093-1.062-.134-1.592-.023-.299-.05-.598-.05-.898 0-.251.044-.493.05-.743.062-2.736.418-5.431 1.111-7.931.082-.297.188-.578.278-.869.161-.482.317-.964.524-1.446.146-.341.332-.682.498-1.023.156-.322.291-.644.47-.965.797-1.434 1.847-2.735 3.143-3.901 1.296-1.164 2.845-2.085 4.64-2.758 1.795-.672 3.892-1.008 6.286-1.008 2.392 0 4.488.336 6.283 1.008 1.798.673 3.343 1.595 4.639 2.758 1.296 1.166 2.32 2.467 3.068 3.901.748 1.436 1.371 2.871 1.87 4.303h-24.487v11.164h44.091v-2.422c0-1.613-.076-3.138-.224-4.573-.15-1.432-.324-2.824-.524-4.169-.598-3.496-1.572-6.566-2.917-9.212-1.349-2.644-2.894-4.93-4.639-6.858-1.746-1.927-3.643-3.542-5.687-4.842-2.047-1.3-4.068-2.354-6.06-3.162-4.79-1.882-9.929-2.913-15.414-3.093-6.687.18-12.622 1.524-17.809 4.035-2.195 1.075-4.363 2.467-6.51 4.168-2.146 1.704-4.038 3.833-5.686 6.389-1.647 2.555-2.97 5.582-3.967 9.078-.997 3.496-1.496 7.578-1.496 12.238 0 4.664.499 8.742 1.496 12.24.997 3.497 2.319 6.502 3.967 9.011 1.647 2.511 3.54 4.596 5.686 6.254 2.146 1.66 4.314 3.026 6.51 4.102 5.187 2.421 11.122 3.675 17.809 3.767 5.085 0 9.925-.807 14.515-2.422 1.894-.716 3.839-1.634 5.837-2.756 1.995-1.12 3.865-2.533 5.61-4.237 1.745-1.702 3.34-3.719 4.787-6.053 1.446-2.33 2.568-5.063 3.369-8.203h-19.456c-1.096 2.333-2.792 4.394-5.085 6.187-2.297 1.794-5.489 2.689-9.577 2.689-4.091 0-7.283-.896-9.577-2.689-2.297-1.793-3.992-3.854-5.088-6.187-.294-.64-.531-1.285-.754-1.932-.309-.896-.569-1.798-.742-2.71-.137-.721-.227-1.422-.343-2.134z" fill="#070034"/></svg>