<svg xmlns="http://www.w3.org/2000/svg" height="800" width="1200" viewBox="-10.33455 -10.26525 89.5661 61.5915"><path d="M68.897 41.061H0V10.183C0 4.584 4.584 0 10.186 0h58.711v41.061" fill="#ED1C24"/><path fill="#FFF" d="M10.186 17.61h5.443v9.75h4.868v-9.75h5.437v-3.936H10.186v3.936m25.289 6.931c-1.131 0-1.98-.327-2.701-.998-.705-.657-1.211-1.66-1.211-3.026v-.205c0-1.359.506-2.378 1.211-3.03.721-.676 1.576-.988 2.701-.988 2.657 0 3.225 1.582 3.395 2.613h4.32c-.106-2.082-1.099-3.545-2.5-4.519-1.396-.97-3.017-1.465-5.168-1.465-2.645 0-4.524.589-6.069 1.898-1.556 1.336-2.384 3.439-2.384 5.541v.107c0 2.298.72 4.021 2.316 5.471 1.492 1.356 3.668 1.976 6.086 1.968 2.143 0 3.981-.503 5.256-1.46 1.403-1.061 2.362-2.55 2.478-4.514h-4.31c-.119.825-.639 2.607-3.42 2.607m15.021-.935v-9.933h-4.687v13.681h12.375v-3.748h-7.688"/></svg>