<?xml version="1.0" standalone="no"?>
<!DOCTYPE svg PUBLIC "-//W3C//DTD SVG 20010904//EN"
 "http://www.w3.org/TR/2001/REC-SVG-20010904/DTD/svg10.dtd">
<svg version="1.0" xmlns="http://www.w3.org/2000/svg"
 width="1254.000000pt" height="1254.000000pt" viewBox="0 0 1254.000000 1254.000000"
 preserveAspectRatio="xMidYMid meet">
<metadata>
Created by potrace 1.14, written by Peter Selinger 2001-2017
</metadata>
<g transform="translate(0.000000,1254.000000) scale(0.100000,-0.100000)"
fill="#000000" stroke="none">
<path d="M140 11365 l0 -325 330 0 330 0 0 325 0 325 -330 0 -330 0 0 -325z"/>
<path d="M2330 11300 l0 -390 410 0 410 0 0 390 0 390 -410 0 -410 0 0 -390z"/>
<path d="M1050 10355 l0 -485 500 0 500 0 0 -330 0 -330 340 0 340 0 0 -2930
0 -2930 1085 0 1085 0 0 2355 c0 2143 1 2356 16 2362 9 3 903 6 1987 7 1569 1
1995 -2 2082 -12 534 -64 890 -285 1070 -663 88 -187 116 -327 139 -699 62
-966 73 -2215 26 -2675 -17 -161 -97 -457 -166 -614 -13 -29 -24 -55 -24 -57
0 -2 514 -3 1142 -2 l1142 3 8 30 c5 17 19 84 33 150 42 209 47 317 35 846 -5
266 -21 999 -35 1629 -30 1433 -31 1453 -50 1580 -73 479 -247 971 -453 1280
-114 171 -207 259 -447 420 -312 209 -511 296 -846 374 -362 83 -832 132
-1584 166 -121 6 -1358 14 -2750 19 -1391 5 -2900 12 -3352 16 l-823 7 0 484
0 484 -500 0 -500 0 0 -485z"/>
<path d="M6280 5305 l0 -1955 1090 0 1090 0 0 1955 0 1955 -1090 0 -1090 0 0
-1955z"/>
<path d="M5160 6810 l0 -430 435 0 435 0 0 430 0 430 -435 0 -435 0 0 -430z"/>
<path d="M8750 6810 l0 -430 440 0 440 0 0 430 0 430 -440 0 -440 0 0 -430z"/>
<path d="M2730 1735 l0 -885 4650 0 4651 0 40 37 c26 25 43 52 49 78 6 23 10
390 10 848 l0 807 -4700 0 -4700 0 0 -885z"/>
</g>
</svg>
